0
SECTION
2
HEADER
9
$INSUNITS
70
4
9
$ACADVER
1
AC1014
9
$HANDSEED
5
FFFF
0
ENDSEC
0
SECTION
2
TABLES
0
TABLE
2
VPORT
5
8
100
AcDbSymbolTable
0
ENDTAB
0
TABLE
2
LTYPE
5
5
100
AcDbSymbolTable
0
LTYPE
5
14
100
AcDbSymbolTableRecord
100
AcDbLinetypeTableRecord
2
BYBLOCK
70
0
0
LTYPE
5
15
100
AcDbSymbolTableRecord
100
AcDbLinetypeTableRecord
2
BYLAYER
70
0
0
ENDTAB
0
TABLE
2
LAYER
5
2
100
AcDbSymbolTable
70
2
0
LAYER
5
50
100
AcDbSymbolTableRecord
100
AcDbLayerTableRecord
2
0
70
0
6
CONTINUOUS
0
ENDTAB
0
TABLE
2
STYLE
5
3
100
AcDbSymbolTable
70
1
0
STYLE
5
11
100
AcDbSymbolTableRecord
100
AcDbTextStyleTableRecord
2
STANDARD
70
0
0
ENDTAB
0
TABLE
2
VIEW
5
6
100
AcDbSymbolTable
70
0
0
ENDTAB
0
TABLE
2
UCS
5
7
100
AcDbSymbolTable
70
0
0
ENDTAB
0
TABLE
2
APPID
5
9
100
AcDbSymbolTable
70
2
0
APPID
5
12
100
AcDbSymbolTableRecord
100
AcDbRegAppTableRecord
2
ACAD
70
0
0
ENDTAB
0
TABLE
2
DIMSTYLE
5
A
100
AcDbSymbolTable
70
1
0
ENDTAB
0
TABLE
2
BLOCK_RECORD
5
1
100
AcDbSymbolTable
70
1
0
BLOCK_RECORD
5
1F
100
AcDbSymbolTableRecord
100
AcDbBlockTableRecord
2
*MODEL_SPACE
0
BLOCK_RECORD
5
1B
100
AcDbSymbolTableRecord
100
AcDbBlockTableRecord
2
*PAPER_SPACE
0
ENDTAB
0
ENDSEC
0
SECTION
2
BLOCKS
0
BLOCK
5
20
100
AcDbEntity
100
AcDbBlockBegin
2
*MODEL_SPACE
0
ENDBLK
5
21
100
AcDbEntity
100
AcDbBlockEnd
0
BLOCK
5
1C
100
AcDbEntity
100
AcDbBlockBegin
2
*PAPER_SPACE
0
ENDBLK
5
1D
100
AcDbEntity
100
AcDbBlockEnd
0
ENDSEC
0
SECTION
2
ENTITIES
0
LINE
5
100
100
AcDbEntity
8
0
100
AcDbLine
10
40.025600925401648
20
26.000615278985411
30
0
11
39.809036832079876
21
25.707861533102417
31
0
0
LINE
5
101
100
AcDbEntity
8
0
100
AcDbLine
10
39.809036832079876
20
25.707861533102417
30
0
11
30.991567
21
25.713826750000006
31
0
0
LINE
5
102
100
AcDbEntity
8
0
100
AcDbLine
10
30.991567
20
25.713826750000006
30
0
11
30.290270500000016
21
25.134906250000007
31
0
0
SPLINE
5
103
100
AcDbEntity
8
0
100
AcDbSpline
70
0
71
3
72
8
73
4
74
0
42
0.000000001
43
0.0000000001
44
0.0000000001
40
0
40
0
40
0
40
0
40
1
40
1
40
1
40
1
10
30.290270500000016
20
25.134906250000007
30
0
10
29.904556000000024
20
24.816499750000006
30
0
10
29.548807000000021
20
24.512746750000005
30
0
10
29.499716500000037
20
24.459900250000004
30
0
0
SPLINE
5
104
100
AcDbEntity
8
0
100
AcDbSpline
70
0
71
3
72
8
73
4
74
0
42
0.000000001
43
0.0000000001
44
0.0000000001
40
0
40
0
40
0
40
0
40
1
40
1
40
1
40
1
10
29.499716500000037
20
24.459900250000004
30
0
10
29.450626000000018
20
24.407052250000007
30
0
10
29.094877000000015
20
24.094672750000004
30
0
10
28.70916400000004
20
23.765719750000006
30
0
0
SPLINE
5
105
100
AcDbEntity
8
0
100
AcDbSpline
70
0
71
3
72
8
73
4
74
0
42
0.000000001
43
0.0000000001
44
0.0000000001
40
0
40
0
40
0
40
0
40
1
40
1
40
1
40
1
10
28.70916400000004
20
23.765719750000006
30
0
10
28.323449500000013
20
23.436768250000007
30
0
10
27.985234000000023
20
23.146636750000006
30
0
10
27.957571000000012
20
23.120982250000004
30
0
0
SPLINE
5
106
100
AcDbEntity
8
0
100
AcDbSpline
70
0
71
3
72
8
73
4
74
0
42
0.000000001
43
0.0000000001
44
0.0000000001
40
0
40
0
40
0
40
0
40
1
40
1
40
1
40
1
10
27.957571000000012
20
23.120982250000004
30
0
10
27.908573500000013
20
23.075541250000001
30
0
10
28.035517000000016
20
23.074366750000003
30
0
10
32.87940250000004
20
23.075442250000005
30
0
0
LINE
5
107
100
AcDbEntity
8
0
100
AcDbLine
10
32.87940250000004
20
23.075442250000002
30
0
11
37.851529000000014
21
23.076492250000005
31
0
0
LINE
5
108
100
AcDbEntity
8
0
100
AcDbLine
10
37.851529000000014
20
23.076492250000005
30
0
11
38.850640000000013
21
24.389019250000004
31
0
0
SPLINE
5
109
100
AcDbEntity
8
0
100
AcDbSpline
70
0
71
3
72
8
73
4
74
0
42
0.000000001
43
0.0000000001
44
0.0000000001
40
0
40
0
40
0
40
0
40
1
40
1
40
1
40
1
10
38.850640000000013
20
24.389019250000004
30
0
10
39.400150000000011
20
25.110909250000006
30
0
10
39.850574500000008
20
25.704375250000005
30
0
10
39.851582500000035
20
25.707832750000005
30
0
0
LINE
5
110
100
AcDbEntity
8
0
100
AcDbLine
10
39.851582500000028
20
25.707832750000005
30
0
11
40.06688074312769
21
25.998875305535737
31
0
0
SPLINE
5
111
100
AcDbEntity
8
0
100
AcDbSpline
70
0
71
3
72
8
73
4
74
0
42
0.000000001
43
0.0000000001
44
0.0000000001
40
0.70599679936575777
40
0.70599679936575777
40
0.70599679936575777
40
0.70599679936575777
40
1
40
1
40
1
40
1
10
40.06688074312769
20
25.998875305535741
30
0
10
40.208867715373664
20
25.99219435006702
30
0
10
40.232802264057469
20
25.982857621772098
30
0
10
40.244738500000011
20
25.969834750000004
30
0
0
SPLINE
5
112
100
AcDbEntity
8
0
100
AcDbSpline
70
0
71
3
72
8
73
4
74
0
42
0.000000001
43
0.0000000001
44
0.0000000001
40
0
40
0
40
0
40
0
40
1
40
1
40
1
40
1
10
40.244738500000011
20
25.969834750000004
30
0
10
40.283852500000009
20
25.927222750000006
30
0
10
40.28687950000004
20
25.243899250000009
30
0
10
40.286084500000015
20
16.636143250000003
30
0
0
LINE
5
113
100
AcDbEntity
8
0
100
AcDbLine
10
40.286084500000015
20
16.636143250000007
30
0
11
40.285184500000014
21
7.3484300500000028
31
0
0
LINE
5
114
100
AcDbEntity
8
0
100
AcDbLine
10
40.285184500000014
20
7.3484300500000028
30
0
11
39.170384500000011
21
4.5672938500000031
31
0
0
SPLINE
5
115
100
AcDbEntity
8
0
100
AcDbSpline
70
0
71
3
72
8
73
4
74
0
42
0.000000001
43
0.0000000001
44
0.0000000001
40
0
40
0
40
0
40
0
40
0.79080399501819265
40
0.79080399501819265
40
0.79080399501819265
40
0.79080399501819265
10
39.170384500000011
20
4.5672938500000031
30
0
10
38.685493145404692
20
3.3576465291307867
30
0
10
38.260470428782945
20
2.3104048255331238
30
0
10
38.094344844787251
20
1.9140498768893224
30
0
0
LINE
5
116
100
AcDbEntity
8
0
100
AcDbLine
10
38.094344844787251
20
1.9140498768893224
30
0
11
38.094344844787258
21
2.7414403934189959
31
0
0
SPLINE
5
117
100
AcDbEntity
8
0
100
AcDbSpline
70
0
71
3
72
8
73
4
74
0
42
0.000000001
43
0.0000000001
44
0.0000000001
40
0.12355168744199567
40
0.12355168744199567
40
0.12355168744199567
40
0.12355168744199567
40
1
40
1
40
1
40
1
10
38.094344844787265
20
2.7414403934189959
30
0
10
38.186473794457605
20
2.9557191180501485
30
0
10
38.573179844490831
20
3.9071541491923107
30
0
10
39.029255500000048
20
5.042819500000002
30
0
0
LINE
5
118
100
AcDbEntity
8
0
100
AcDbLine
10
39.029255500000048
20
5.042819500000002
30
0
11
39.975380500000014
21
7.3987441000000054
31
0
0
LINE
5
119
100
AcDbEntity
8
0
100
AcDbLine
10
39.975380500000014
20
7.3987441000000054
30
0
11
39.978155500000042
21
16.385485750000008
31
0
0
SPLINE
5
120
100
AcDbEntity
8
0
100
AcDbSpline
70
0
71
3
72
8
73
4
74
0
42
0.000000001
43
0.0000000001
44
0.0000000001
40
0
40
0
40
0
40
0
40
1
40
1
40
1
40
1
10
39.978155500000042
20
16.385485750000008
30
0
10
39.97976050000004
20
21.575064250000011
30
0
10
39.971420500000022
20
25.362135250000005
30
0
10
39.958439500000026
20
25.348342750000008
30
0
0
SPLINE
5
121
100
AcDbEntity
8
0
100
AcDbSpline
70
0
71
3
72
8
73
4
74
0
42
0.000000001
43
0.0000000001
44
0.0000000001
40
0
40
0
40
0
40
0
40
1
40
1
40
1
40
1
10
39.958433500000027
20
25.348342750000008
30
0
10
39.946058500000007
20
25.335202750000008
30
0
10
39.523201000000029
20
24.778449250000001
30
0
10
39.018734500000022
20
24.111106750000005
30
0
0
LINE
5
122
100
AcDbEntity
8
0
100
AcDbLine
10
39.018734500000022
20
24.111106750000005
30
0
11
38.101523500000013
21
22.89775375
31
0
0
LINE
5
123
100
AcDbEntity
8
0
100
AcDbLine
10
38.101523500000013
20
22.89775375
30
0
11
38.082770500000024
21
12.801745749999998
31
0
0
SPLINE
5
124
100
AcDbEntity
8
0
100
AcDbSpline
70
0
71
3
72
8
73
4
74
0
42
0.000000001
43
0.0000000001
44
0.0000000001
40
0
40
0
40
0
40
0
40
1
40
1
40
1
40
1
10
38.082770500000024
20
12.801745749999998
30
0
10
38.072450500000002
20
7.2489412000000053
30
0
10
38.06831050000001
20
2.7014980000000022
30
0
10
38.073575500000047
20
2.6963162500000042
30
0
0
LINE
5
125
100
AcDbEntity
8
0
100
AcDbLine
10
38.073575500000047
20
2.6963162500000042
30
0
11
38.073575500000047
21
1.8646982725661694
31
0
0
SPLINE
5
126
100
AcDbEntity
8
0
100
AcDbSpline
70
0
71
3
72
8
73
4
74
0
42
0.000000001
43
0.0000000001
44
0.0000000001
40
0.82626681022762871
40
0.82626681022762871
40
0.82626681022762871
40
0.82626681022762871
40
1
40
1
40
1
40
1
10
38.073575499998363
20
1.8646982725622097
30
0
10
38.042268231224689
20
1.7906630237145555
30
0
10
38.023887277036557
20
1.7490997591275983
30
0
10
38.020543000000032
20
1.7451880000000024
30
0
0
SPLINE
5
127
100
AcDbEntity
8
0
100
AcDbSpline
70
0
71
3
72
8
73
4
74
0
42
0.000000001
43
0.0000000001
44
0.0000000001
40
0
40
0
40
0
40
0
40
1
40
1
40
1
40
1
10
38.020543000000032
20
1.7451880000000024
30
0
10
37.98830650000005
20
1.7074826500000029
30
0
10
37.124951500000037
20
1.7042500000000009
30
0
10
27.086681800000019
20
1.7042499999999983
30
0
0
LINE
5
128
100
AcDbEntity
8
0
100
AcDbLine
10
27.086681800000019
20
1.7042499999999983
30
0
11
16.187820250000033
21
1.7042499999999983
31
0
0
LINE
5
129
100
AcDbEntity
8
0
100
AcDbLine
10
16.187820250000033
20
1.7042499999999983
30
0
11
16.187820249999998
21
12.449098749999996
31
0
0
LINE
5
130
100
AcDbEntity
8
0
100
AcDbLine
10
16.187820249999998
20
12.449098749999996
30
0
11
16.316982250000027
21
12.566778250000002
31
0
0
SPLINE
5
131
100
AcDbEntity
8
0
100
AcDbSpline
70
0
71
3
72
8
73
4
74
0
42
0.000000001
43
0.0000000001
44
0.0000000001
40
0
40
0
40
0
40
0
40
1
40
1
40
1
40
1
10
16.316982250000027
20
12.566778250000002
30
0
10
16.388021350000006
20
12.63150175
30
0
10
16.840303750000007
20
13.028160250000001
30
0
10
17.322054250000019
20
13.448241249999995
30
0
0
LINE
5
132
100
AcDbEntity
8
0
100
AcDbLine
10
17.322054250000019
20
13.448241249999995
30
0
11
18.179860002036708
21
14.196236455789176
31
0
0
LINE
5
133
100
AcDbEntity
8
0
100
AcDbLine
10
18.179860002036708
20
14.196236455789176
30
0
11
18.475006218442964
21
14.037462905518407
31
0
0
SPLINE
5
134
100
AcDbEntity
8
0
100
AcDbSpline
70
0
71
3
72
8
73
4
74
0
42
0.000000001
43
0.0000000001
44
0.0000000001
40
0.11230723105853839
40
0.11230723105853839
40
0.11230723105853839
40
0.11230723105853839
40
1
40
1
40
1
40
1
10
18.475006218454997
20
14.037462905503972
30
0
10
18.389362603314105
20
13.966060260235452
30
0
10
18.032186655924473
20
13.656472333535529
30
0
10
17.617963600000035
20
13.294368249999998
30
0
0
LINE
5
135
100
AcDbEntity
8
0
100
AcDbLine
10
17.617963600000031
20
13.29436825
30
0
11
16.769547400000011
21
12.55270075
31
0
0
LINE
5
136
100
AcDbEntity
8
0
100
AcDbLine
10
16.769547400000011
20
12.55270075
30
0
11
20.514335050000003
21
12.53932075
31
0
0
SPLINE
5
137
100
AcDbEntity
8
0
100
AcDbSpline
70
0
71
3
72
8
73
4
74
0
42
0.000000001
43
0.0000000001
44
0.0000000001
40
0
40
0
40
0
40
0
40
1
40
1
40
1
40
1
10
20.514335050000003
20
12.53932075
30
0
10
24.25540210000003
20
12.52595575
30
0
10
24.259357600000033
20
12.525895749999997
30
0
10
24.495534250000031
20
12.470874250000003
30
0
0
SPLINE
5
138
100
AcDbEntity
8
0
100
AcDbSpline
70
0
71
3
72
8
73
4
74
0
42
0.000000001
43
0.0000000001
44
0.0000000001
40
0
40
0
40
0
40
0
40
1
40
1
40
1
40
1
10
24.495534250000031
20
12.470874250000003
30
0
10
25.807345750000028
20
12.165288250000003
30
0
10
26.520141850000041
20
11.509657899999997
30
0
10
26.871213100000002
20
10.285721350000003
30
0
0
SPLINE
5
139
100
AcDbEntity
8
0
100
AcDbSpline
70
0
71
3
72
8
73
4
74
0
42
0.000000001
43
0.0000000001
44
0.0000000001
40
0
40
0
40
0
40
0
40
1
40
1
40
1
40
1
10
26.871213100000002
20
10.285721350000003
30
0
10
27.021549400000016
20
9.761605150000003
30
0
10
27.088565650000032
20
9.2350484500000025
30
0
10
27.179450500000026
20
7.8638528500000016
30
0
0
SPLINE
5
140
100
AcDbEntity
8
0
100
AcDbSpline
70
0
71
3
72
8
73
4
74
0
42
0.000000001
43
0.0000000001
44
0.0000000001
40
0
40
0
40
0
40
0
40
1
40
1
40
1
40
1
10
27.179450500000026
20
7.8638528500000016
30
0
10
27.296068000000009
20
6.1044226000000004
30
0
10
27.432275500000021
20
5.3990939500000001
30
0
10
27.804440500000016
20
4.6274324499999988
30
0
0
SPLINE
5
141
100
AcDbEntity
8
0
100
AcDbSpline
70
0
71
3
72
8
73
4
74
0
42
0.000000001
43
0.0000000001
44
0.0000000001
40
0
40
0
40
0
40
0
40
1
40
1
40
1
40
1
10
27.804440500000016
20
4.6274324499999988
30
0
10
28.267147000000019
20
3.6680384499999996
30
0
10
29.09627200000001
20
2.9760959500000004
30
0
10
30.252026500000024
20
2.5848097000000028
30
0
0
SPLINE
5
142
100
AcDbEntity
8
0
100
AcDbSpline
70
0
71
3
72
8
73
4
74
0
42
0.000000001
43
0.0000000001
44
0.0000000001
40
0
40
0
40
0
40
0
40
1
40
1
40
1
40
1
10
30.252026500000024
20
2.5848097000000028
30
0
10
31.127762500000014
20
2.2883252499999998
30
0
10
31.769705500000018
20
2.2046796999999998
30
0
10
32.563604500000039
20
2.2836095499999995
30
0
0
SPLINE
5
143
100
AcDbEntity
8
0
100
AcDbSpline
70
0
71
3
72
8
73
4
74
0
42
0.000000001
43
0.0000000001
44
0.0000000001
40
0
40
0
40
0
40
0
40
1
40
1
40
1
40
1
10
32.563604500000039
20
2.2836095499999995
30
0
10
34.400132500000012
20
2.4661982500000024
30
0
10
35.917534000000032
20
3.495010300000001
30
0
10
36.735814000000019
20
5.1124040500000039
30
0
0
SPLINE
5
144
100
AcDbEntity
8
0
100
AcDbSpline
70
0
71
3
72
8
73
4
74
0
42
0.000000001
43
0.0000000001
44
0.0000000001
40
0
40
0
40
0
40
0
40
1
40
1
40
1
40
1
10
36.735814000000019
20
5.1124040500000039
30
0
10
37.026247000000026
20
5.6864671000000033
30
0
10
37.215578500000021
20
6.3246878500000019
30
0
10
37.287274000000025
20
6.9713383000000029
30
0
0
SPLINE
5
145
100
AcDbEntity
8
0
100
AcDbSpline
70
0
71
3
72
8
73
4
74
0
42
0.000000001
43
0.0000000001
44
0.0000000001
40
0
40
0
40
0
40
0
40
1
40
1
40
1
40
1
10
37.287274000000025
20
6.9713383000000029
30
0
10
37.300999000000047
20
7.0950874000000024
30
0
10
37.281214000000006
20
7.8976159000000052
30
0
10
37.261817500000006
20
8.0042005000000049
30
0
0
LINE
5
146
100
AcDbEntity
8
0
100
AcDbLine
10
37.261817500000006
20
8.0042005000000049
30
0
11
37.247708500000044
21
8.0816995000000009
31
0
0
LINE
5
147
100
AcDbEntity
8
0
100
AcDbLine
10
37.247708500000044
20
8.0816995000000009
30
0
11
37.181471500000015
21
8.3752760500000019
31
0
0
LINE
5
148
100
AcDbEntity
8
0
100
AcDbLine
10
37.181471500000015
20
8.3752760500000019
30
0
11
37.167041500000039
21
8.4791114500000049
31
0
0
SPLINE
5
149
100
AcDbEntity
8
0
100
AcDbSpline
70
0
71
3
72
8
73
4
74
0
42
0.000000001
43
0.0000000001
44
0.0000000001
40
0
40
0
40
0
40
0
40
1
40
1
40
1
40
1
10
37.167041500000039
20
8.4791114500000049
30
0
10
37.159106500000036
20
8.5362209500000024
30
0
10
37.111496500000015
20
8.7066638500000018
30
0
10
37.061254000000034
20
8.8578731500000014
30
0
0
SPLINE
5
150
100
AcDbEntity
8
0
100
AcDbSpline
70
0
71
3
72
8
73
4
74
0
42
0.000000001
43
0.0000000001
44
0.0000000001
40
0
40
0
40
0
40
0
40
1
40
1
40
1
40
1
10
37.061248000000035
20
8.8578731500000014
30
0
10
36.755903500000016
20
9.7768333000000034
30
0
10
36.157589500000014
20
10.564291900000001
30
0
10
35.314108000000019
20
11.157334450000004
30
0
0
SPLINE
5
151
100
AcDbEntity
8
0
100
AcDbSpline
70
0
71
3
72
8
73
4
74
0
42
0.000000001
43
0.0000000001
44
0.0000000001
40
0
40
0
40
0
40
0
40
1
40
1
40
1
40
1
10
35.314108000000019
20
11.157334450000004
30
0
10
34.423163500000044
20
11.783748250000006
30
0
10
32.684033500000012
20
12.241161250000001
30
0
10
31.43784700000003
20
12.176839749999999
30
0
0
SPLINE
5
152
100
AcDbEntity
8
0
100
AcDbSpline
70
0
71
3
72
8
73
4
74
0
42
0.000000001
43
0.0000000001
44
0.0000000001
40
0
40
0
40
0
40
0
40
1
40
1
40
1
40
1
10
31.43784700000003
20
12.176839749999999
30
0
10
31.08531250000004
20
12.158643250000003
30
0
10
30.834716500000017
20
12.129894250000001
30
0
10
30.809177500000029
20
12.104715250000002
30
0
0
SPLINE
5
153
100
AcDbEntity
8
0
100
AcDbSpline
70
0
71
3
72
8
73
4
74
0
42
0.000000001
43
0.0000000001
44
0.0000000001
40
0
40
0
40
0
40
0
40
1
40
1
40
1
40
1
10
30.809177500000029
20
12.104715250000002
30
0
10
30.800012500000005
20
12.095670250000003
30
0
10
30.82998850000001
20
11.943876250000006
30
0
10
30.875801500000026
20
11.767383250000002
30
0
0
SPLINE
5
154
100
AcDbEntity
8
0
100
AcDbSpline
70
0
71
3
72
8
73
4
74
0
42
0.000000001
43
0.0000000001
44
0.0000000001
40
0
40
0
40
0
40
0
40
1
40
1
40
1
40
1
10
30.875801500000026
20
11.767383250000002
30
0
10
31.352435500000038
20
9.9311567500000031
30
0
10
32.507971000000012
20
8.6667640000000041
30
0
10
34.063829500000026
20
8.2790305000000046
30
0
0
SPLINE
5
155
100
AcDbEntity
8
0
100
AcDbSpline
70
0
71
3
72
8
73
4
74
0
42
0.000000001
43
0.0000000001
44
0.0000000001
40
0
40
0
40
0
40
0
40
1
40
1
40
1
40
1
10
34.063829500000026
20
8.2790305000000046
30
0
10
34.564025500000014
20
8.1543772000000025
30
0
10
35.074724500000031
20
8.110585750000002
30
0
10
35.648507500000036
20
8.1431474500000007
30
0
0
SPLINE
5
156
100
AcDbEntity
8
0
100
AcDbSpline
70
0
71
3
72
8
73
4
74
0
42
0.000000001
43
0.0000000001
44
0.0000000001
40
0
40
0
40
0
40
0
40
1
40
1
40
1
40
1
10
35.648507500000036
20
8.1431474500000007
30
0
10
36.089219500000013
20
8.1681574000000055
30
0
10
36.276422500000024
20
8.1933154000000066
30
0
10
36.789701500000035
20
8.2965104500000066
30
0
0
LINE
5
157
100
AcDbEntity
8
0
100
AcDbLine
10
36.789701500000035
20
8.2965104500000066
30
0
11
37.174256500000027
21
8.3738254698024406
31
0
0
LINE
5
158
100
AcDbEntity
8
0
100
AcDbLine
10
37.174256500000027
20
8.3738254698024406
30
0
11
37.238413920619472
21
8.0796722698394081
31
0
0
LINE
5
159
100
AcDbEntity
8
0
100
AcDbLine
10
37.238413920619472
20
8.0796722698394081
30
0
11
36.780190636554778
21
7.97972970937413
31
0
0
SPLINE
5
160
100
AcDbEntity
8
0
100
AcDbSpline
70
0
71
3
72
8
73
4
74
0
42
0.000000001
43
0.0000000001
44
0.0000000001
40
0.12601430238219755
40
0.12601430238219755
40
0.12601430238219755
40
0.12601430238219755
40
1
40
1
40
1
40
1
10
36.780190636554771
20
7.9797297093741282
30
0
10
36.340058167198386
20
7.8905174284060875
30
0
10
36.013475985153448
20
7.858174138430547
30
0
10
35.489303500000005
20
7.8459178000000023
30
0
0
SPLINE
5
161
100
AcDbEntity
8
0
100
AcDbSpline
70
0
71
3
72
8
73
4
74
0
42
0.000000001
43
0.0000000001
44
0.0000000001
40
0
40
0
40
0
40
0
40
1
40
1
40
1
40
1
10
35.489303500000005
20
7.8459178000000023
30
0
10
34.57515400000004
20
7.824542800000005
30
0
10
33.996010000000027
20
7.9204307500000004
30
0
10
33.320519500000017
20
8.2049990500000014
30
0
0
SPLINE
5
162
100
AcDbEntity
8
0
100
AcDbSpline
70
0
71
3
72
8
73
4
74
0
42
0.000000001
43
0.0000000001
44
0.0000000001
40
0
40
0
40
0
40
0
40
1
40
1
40
1
40
1
10
33.320519500000017
20
8.2049990500000014
30
0
10
31.95115000000003
20
8.7818840500000039
30
0
10
30.92545000000003
20
10.128094300000001
30
0
10
30.535819000000028
20
11.859864250000003
30
0
0
LINE
5
163
100
AcDbEntity
8
0
100
AcDbLine
10
30.535819000000028
20
11.859864250000003
30
0
11
30.476752000000022
21
12.122395749999999
31
0
0
LINE
5
164
100
AcDbEntity
8
0
100
AcDbLine
10
30.476752000000022
20
12.122395749999999
30
0
11
30.134870500000037
21
12.190263249999999
31
0
0
SPLINE
5
165
100
AcDbEntity
8
0
100
AcDbSpline
70
0
71
3
72
8
73
4
74
0
42
0.000000001
43
0.0000000001
44
0.0000000001
40
0
40
0
40
0
40
0
40
1
40
1
40
1
40
1
10
30.134870500000037
20
12.190263249999999
30
0
10
29.71949050000001
20
12.27272275
30
0
10
29.467036000000011
20
12.354805750000004
30
0
10
29.125222000000033
20
12.518536750000004
30
0
0
SPLINE
5
166
100
AcDbEntity
8
0
100
AcDbSpline
70
0
71
3
72
8
73
4
74
0
42
0.000000001
43
0.0000000001
44
0.0000000001
40
0
40
0
40
0
40
0
40
1
40
1
40
1
40
1
10
29.125222000000033
20
12.518536750000004
30
0
10
28.212311500000009
20
12.955830250000005
30
0
10
27.582829000000029
20
13.74034675
30
0
10
27.322595500000002
20
14.765131750000005
30
0
0
SPLINE
5
167
100
AcDbEntity
8
0
100
AcDbSpline
70
0
71
3
72
8
73
4
74
0
42
0.000000001
43
0.0000000001
44
0.0000000001
40
0
40
0
40
0
40
0
40
1
40
1
40
1
40
1
10
27.322595500000002
20
14.765131750000005
30
0
10
27.210935500000009
20
15.204841750000007
30
0
10
27.172990000000024
20
15.530484250000008
30
0
10
27.169528000000032
20
16.078758250000007
30
0
0
LINE
5
168
100
AcDbEntity
8
0
100
AcDbLine
10
27.169528000000032
20
16.078758250000007
30
0
11
27.166318000000036
21
16.587864250000003
31
0
0
LINE
5
169
100
AcDbEntity
8
0
100
AcDbLine
10
27.166318000000036
20
16.587864250000003
30
0
11
27.179060500000016
21
16.897522750000004
31
0
0
LINE
5
170
100
AcDbEntity
8
0
100
AcDbLine
10
27.179060500000016
20
16.897522750000004
30
0
11
27.179060500000016
21
17.602528750000008
31
0
0
SPLINE
5
171
100
AcDbEntity
8
0
100
AcDbSpline
70
0
71
3
72
8
73
4
74
0
42
0.000000001
43
0.0000000001
44
0.0000000001
40
0
40
0
40
0
40
0
40
1
40
1
40
1
40
1
10
27.179060500000016
20
17.602528750000008
30
0
10
27.179060500000016
20
18.019924750000008
30
0
10
27.16971550000002
20
18.297792250000004
30
0
10
27.156169000000023
20
18.283651750000008
30
0
0
SPLINE
5
172
100
AcDbEntity
8
0
100
AcDbSpline
70
0
71
3
72
8
73
4
74
0
42
0.000000001
43
0.0000000001
44
0.0000000001
40
0
40
0
40
0
40
0
40
1
40
1
40
1
40
1
10
27.156169000000023
20
18.283650250000004
30
0
10
27.057727900000028
20
18.180942250000005
30
0
10
25.932378400000022
20
16.878325749999998
30
0
10
25.937621950000018
20
16.873156750000003
30
0
0
SPLINE
5
173
100
AcDbEntity
8
0
100
AcDbSpline
70
0
71
3
72
8
73
4
74
0
42
0.000000001
43
0.0000000001
44
0.0000000001
40
0
40
0
40
0
40
0
40
1
40
1
40
1
40
1
10
25.937621950000018
20
16.873156750000003
30
0
10
25.941325450000026
20
16.869511750000008
30
0
10
26.222164150000022
20
16.873456750000003
30
0
10
26.561708050000039
20
16.882021750000003
30
0
0
LINE
5
174
100
AcDbEntity
8
0
100
AcDbLine
10
26.561708050000036
20
16.882021750000003
30
0
11
27.166318000000036
21
16.897202800686607
31
0
0
LINE
5
175
100
AcDbEntity
8
0
100
AcDbLine
10
27.166318000000036
20
16.897202800686607
30
0
11
27.153588671222664
21
16.587864377675977
31
0
0
LINE
5
176
100
AcDbEntity
8
0
100
AcDbLine
10
27.153588671222664
20
16.587864377675977
30
0
11
26.717666800000028
21
16.587868750000002
31
0
0
SPLINE
5
177
100
AcDbEntity
8
0
100
AcDbSpline
70
0
71
3
72
8
73
4
74
0
42
0.000000001
43
0.0000000001
44
0.0000000001
40
0
40
0
40
0
40
0
40
1
40
1
40
1
40
1
10
26.717666800000028
20
16.587868750000002
30
0
10
26.470908400000024
20
16.587870250000005
30
0
10
26.128792000000001
20
16.580443749999997
30
0
10
25.957408000000033
20
16.57135375
30
0
0
LINE
5
178
100
AcDbEntity
8
0
100
AcDbLine
10
25.957408000000036
20
16.57135375
30
0
11
25.645800850000011
21
16.554835749999999
31
0
0
LINE
5
179
100
AcDbEntity
8
0
100
AcDbLine
10
25.645800850000011
20
16.554835749999999
30
0
11
25.220229850000013
21
16.06243675
31
0
0
SPLINE
5
180
100
AcDbEntity
8
0
100
AcDbSpline
70
0
71
3
72
8
73
4
74
0
42
0.000000001
43
0.0000000001
44
0.0000000001
40
0
40
0
40
0
40
0
40
1
40
1
40
1
40
1
10
25.220229850000013
20
16.06243675
30
0
10
24.684750100000006
20
15.442870749999999
30
0
10
24.49580065000001
20
15.246117249999999
30
0
10
24.208119250000042
20
15.008524750000003
30
0
0
SPLINE
5
181
100
AcDbEntity
8
0
100
AcDbSpline
70
0
71
3
72
8
73
4
74
0
42
0.000000001
43
0.0000000001
44
0.0000000001
40
0
40
0
40
0
40
0
40
1
40
1
40
1
40
1
10
24.208119250000042
20
15.008524750000003
30
0
10
22.738850050000021
20
13.795078749999998
30
0
10
20.559338200000017
20
13.376659750000002
30
0
10
18.808567750000034
20
13.971928749999996
30
0
0
SPLINE
5
182
100
AcDbEntity
8
0
100
AcDbSpline
70
0
71
3
72
8
73
4
74
0
42
0.000000001
43
0.0000000001
44
0.0000000001
40
0
40
0
40
0
40
0
40
1
40
1
40
1
40
1
10
18.808567750000034
20
13.971928749999996
30
0
10
18.650789650000004
20
14.025574749999997
30
0
10
18.509251750000022
20
14.061943749999999
30
0
10
18.494039050000008
20
14.052750250000001
30
0
0
LINE
5
183
100
AcDbEntity
8
0
100
AcDbLine
10
18.494039050000008
20
14.052750249999999
30
0
11
18.197964400000028
21
14.212023249999996
31
0
0
LINE
5
184
100
AcDbEntity
8
0
100
AcDbLine
10
18.197964400000028
20
14.212023249999996
30
0
11
18.130080400000015
21
14.251983249999999
31
0
0
SPLINE
5
185
100
AcDbEntity
8
0
100
AcDbSpline
70
0
71
3
72
8
73
4
74
0
42
0.000000001
43
0.0000000001
44
0.0000000001
40
0
40
0
40
0
40
0
40
1
40
1
40
1
40
1
10
18.130080400000015
20
14.251983249999999
30
0
10
18.092744199999995
20
14.273959749999998
30
0
10
17.974292500000022
20
14.340448749999997
30
0
10
17.866854249999999
20
14.399733250000001
30
0
0
SPLINE
5
186
100
AcDbEntity
8
0
100
AcDbSpline
70
0
71
3
72
8
73
4
74
0
42
0.000000001
43
0.0000000001
44
0.0000000001
40
0
40
0
40
0
40
0
40
1
40
1
40
1
40
1
10
17.866854249999999
20
14.399733250000001
30
0
10
17.382316150000019
20
14.66710675
30
0
10
16.723714900000015
20
15.240031750000007
30
0
10
16.369397500000016
20
15.702388750000001
30
0
0
SPLINE
5
187
100
AcDbEntity
8
0
100
AcDbSpline
70
0
71
3
72
8
73
4
74
0
42
0.000000001
43
0.0000000001
44
0.0000000001
40
0
40
0
40
0
40
0
40
1
40
1
40
1
40
1
10
16.369397500000016
20
15.702388750000001
30
0
10
15.576540700000034
20
16.73700775
30
0
10
15.192712900000007
20
18.058209250000001
30
0
10
15.322278850000028
20
19.306749249999999
30
0
0
SPLINE
5
188
100
AcDbEntity
8
0
100
AcDbSpline
70
0
71
3
72
8
73
4
74
0
42
0.000000001
43
0.0000000001
44
0.0000000001
40
0
40
0
40
0
40
0
40
1
40
1
40
1
40
1
10
15.322278850000028
20
19.306749249999999
30
0
10
15.506038150000006
20
21.07751425
30
0
10
16.725211150000003
20
22.965862749999999
30
0
10
18.201108250000022
20
23.765700249999998
30
0
0
SPLINE
5
189
100
AcDbEntity
8
0
100
AcDbSpline
70
0
71
3
72
8
73
4
74
0
42
0.000000001
43
0.0000000001
44
0.0000000001
40
0
40
0
40
0
40
0
40
1
40
1
40
1
40
1
10
18.201108250000022
20
23.765700249999998
30
0
10
18.328685650000001
20
23.834838249999997
30
0
10
18.923410000000001
20
24.191970250000004
30
0
10
19.522717750000016
20
24.559326249999998
30
0
0
SPLINE
5
190
100
AcDbEntity
8
0
100
AcDbSpline
70
0
71
3
72
8
73
4
74
0
42
0.000000001
43
0.0000000001
44
0.0000000001
40
0
40
0
40
0
40
0
40
1
40
1
40
1
40
1
10
19.522717750000016
20
24.559326249999998
30
0
10
22.516187350000028
20
26.394220750000006
30
0
10
23.822325700000011
20
27.17454475000001
30
0
10
24.076401250000021
20
27.279822250000009
30
0
0
SPLINE
5
191
100
AcDbEntity
8
0
100
AcDbSpline
70
0
71
3
72
8
73
4
74
0
42
0.000000001
43
0.0000000001
44
0.0000000001
40
0
40
0
40
0
40
0
40
1
40
1
40
1
40
1
10
24.076401250000021
20
27.279822250000009
30
0
10
24.416734900000012
20
27.420843250000008
30
0
10
25.043007100000008
20
27.524317750000012
30
0
10
25.556184250000005
20
27.524317750000012
30
0
0
SPLINE
5
192
100
AcDbEntity
8
0
100
AcDbSpline
70
0
71
3
72
8
73
4
74
0
42
0.000000001
43
0.0000000001
44
0.0000000001
40
0
40
0
40
0
40
0
40
1
40
1
40
1
40
1
10
25.556184250000005
20
27.524317750000012
30
0
10
25.868120650000019
20
27.524317750000012
30
0
10
26.368466950000009
20
27.463854250000011
30
0
10
26.682767500000022
20
27.388176250000001
30
0
0
SPLINE
5
193
100
AcDbEntity
8
0
100
AcDbSpline
70
0
71
3
72
8
73
4
74
0
42
0.000000001
43
0.0000000001
44
0.0000000001
40
0
40
0
40
0
40
0
40
1
40
1
40
1
40
1
10
26.682767500000022
20
27.388176250000001
30
0
10
27.967037500000043
20
27.078948250000007
30
0
10
28.886711500000022
20
26.263072750000006
30
0
10
29.319757000000006
20
25.048806250000002
30
0
0
SPLINE
5
194
100
AcDbEntity
8
0
100
AcDbSpline
70
0
71
3
72
8
73
4
74
0
42
0.000000001
43
0.0000000001
44
0.0000000001
40
0
40
0
40
0
40
0
40
0.79170003796335908
40
0.79170003796335908
40
0.79170003796335908
40
0.79170003796335908
10
29.319757000000006
20
25.048806250000002
30
0
10
29.354754100178191
20
24.950673051044348
30
0
10
29.386704065875389
20
24.864703005060083
30
0
10
29.400422294722315
20
24.831246215470593
30
0
0
LINE
5
195
100
AcDbEntity
8
0
100
AcDbLine
10
29.400422294722315
20
24.831246215470593
30
0
11
29.134118234363875
21
24.59897097960404
31
0
0
LINE
5
196
100
AcDbEntity
8
0
100
AcDbLine
10
29.134118234363875
20
24.59897097960404
30
0
11
29.088224500000006
21
24.758854750000005
31
0
0
SPLINE
5
197
100
AcDbEntity
8
0
100
AcDbSpline
70
0
71
3
72
8
73
4
74
0
42
0.000000001
43
0.0000000001
44
0.0000000001
40
0
40
0
40
0
40
0
40
0.99999574192380747
40
0.99999574192380747
40
0.99999574192380747
40
0.99999574192380747
10
29.088224500000006
20
24.758854750000005
30
0
10
29.060372618595963
20
24.85588183684952
30
0
10
29.003383485330772
20
25.017034877589147
30
0
10
28.961581533989154
20
25.116973973353044
30
0
0
SPLINE
5
198
100
AcDbEntity
8
0
100
AcDbSpline
70
0
71
3
72
8
73
4
74
0
42
0.000000001
43
0.0000000001
44
0.0000000001
40
0
40
0
40
0
40
0
40
1
40
1
40
1
40
1
10
28.961581000000027
20
25.116973750000003
30
0
10
28.480954000000036
20
26.266030750000013
30
0
10
27.582050500000026
20
26.938812250000012
30
0
10
26.209995100000025
20
27.176392750000005
30
0
0
SPLINE
5
199
100
AcDbEntity
8
0
100
AcDbSpline
70
0
71
3
72
8
73
4
74
0
42
0.000000001
43
0.0000000001
44
0.0000000001
40
0
40
0
40
0
40
0
40
1
40
1
40
1
40
1
10
26.209995100000025
20
27.176392750000005
30
0
10
25.924858150000016
20
27.225765250000009
30
0
10
25.110332199999998
20
27.218490250000002
30
0
10
24.808397800000019
20
27.163867750000005
30
0
0
SPLINE
5
200
100
AcDbEntity
8
0
100
AcDbSpline
70
0
71
3
72
8
73
4
74
0
42
0.000000001
43
0.0000000001
44
0.0000000001
40
0
40
0
40
0
40
0
40
1
40
1
40
1
40
1
10
24.808397800000019
20
27.163867750000005
30
0
10
24.34576060000003
20
27.080182750000002
30
0
10
24.159481750000023
20
27.000160750000003
30
0
10
23.451367300000019
20
26.580907750000012
30
0
0
SPLINE
5
201
100
AcDbEntity
8
0
100
AcDbSpline
70
0
71
3
72
8
73
4
74
0
42
0.000000001
43
0.0000000001
44
0.0000000001
40
0
40
0
40
0
40
0
40
1
40
1
40
1
40
1
10
23.451367300000019
20
26.580907750000012
30
0
10
22.500315550000014
20
26.017819750000008
30
0
10
19.679282500000017
20
24.299749750000004
30
0
10
19.689770200000023
20
24.290013249999998
30
0
0
SPLINE
5
202
100
AcDbEntity
8
0
100
AcDbSpline
70
0
71
3
72
8
73
4
74
0
42
0.000000001
43
0.0000000001
44
0.0000000001
40
0
40
0
40
0
40
0
40
1
40
1
40
1
40
1
10
19.689770200000023
20
24.290013249999998
30
0
10
19.692264700000006
20
24.28770325
30
0
10
19.797588250000029
20
24.296868249999996
30
0
10
19.923821800000017
20
24.310395249999999
30
0
0
SPLINE
5
203
100
AcDbEntity
8
0
100
AcDbSpline
70
0
71
3
72
8
73
4
74
0
42
0.000000001
43
0.0000000001
44
0.0000000001
40
0
40
0
40
0
40
0
40
1
40
1
40
1
40
1
10
19.923821800000017
20
24.310395249999999
30
0
10
20.050055350000004
20
24.323925250000002
30
0
10
20.296784500000005
20
24.328056249999999
30
0
10
20.472108700000025
20
24.319590249999997
30
0
0
SPLINE
5
204
100
AcDbEntity
8
0
100
AcDbSpline
70
0
71
3
72
8
73
4
74
0
42
0.000000001
43
0.0000000001
44
0.0000000001
40
0
40
0
40
0
40
0
40
1
40
1
40
1
40
1
10
20.472108700000025
20
24.319590249999997
30
0
10
22.602854350000019
20
24.216609250000008
30
0
10
24.406305850000027
20
23.059185250000009
30
0
10
25.330908400000016
20
21.201294250000004
30
0
0
SPLINE
5
205
100
AcDbEntity
8
0
100
AcDbSpline
70
0
71
3
72
8
73
4
74
0
42
0.000000001
43
0.0000000001
44
0.0000000001
40
0
40
0
40
0
40
0
40
1
40
1
40
1
40
1
10
25.330908400000016
20
21.201294250000004
30
0
10
25.755227500000029
20
20.348670250000001
30
0
10
25.941579100000016
20
19.55455675
30
0
10
25.938588400000011
20
18.611745250000002
30
0
0
SPLINE
5
206
100
AcDbEntity
8
0
100
AcDbSpline
70
0
71
3
72
8
73
4
74
0
42
0.000000001
43
0.0000000001
44
0.0000000001
40
0
40
0
40
0
40
0
40
1
40
1
40
1
40
1
10
25.938588400000011
20
18.611745250000002
30
0
10
25.936870900000013
20
18.070258750000004
30
0
10
25.894429450000036
20
17.748988750000002
30
0
10
25.768012000000038
20
17.320522749999999
30
0
0
LINE
5
207
100
AcDbEntity
8
0
100
AcDbLine
10
25.768012000000038
20
17.320522749999999
30
0
11
25.706008300000018
21
17.110374250000003
31
0
0
LINE
5
208
100
AcDbEntity
8
0
100
AcDbLine
10
25.706008300000018
20
17.110374250000003
30
0
11
25.764501550000016
21
17.169675250000004
31
0
0
SPLINE
5
209
100
AcDbEntity
8
0
100
AcDbSpline
70
0
71
3
72
8
73
4
74
0
42
0.000000001
43
0.0000000001
44
0.0000000001
40
0
40
0
40
0
40
0
40
1
40
1
40
1
40
1
10
25.764501550000016
20
17.169675250000004
30
0
10
25.796672800000007
20
17.202291250000002
30
0
10
26.128109500000019
20
17.57875675
30
0
10
26.501027500000038
20
18.00626875
30
0
0
LINE
5
210
100
AcDbEntity
8
0
100
AcDbLine
10
26.501027500000038
20
18.006268750000004
30
0
11
27.179060500000016
21
18.783561250000005
31
0
0
LINE
5
211
100
AcDbEntity
8
0
100
AcDbLine
10
27.179060500000016
20
18.783561250000005
30
0
11
27.179060500000016
21
20.840944750000006
31
0
0
SPLINE
5
212
100
AcDbEntity
8
0
100
AcDbSpline
70
0
71
3
72
8
73
4
74
0
42
0.000000001
43
0.0000000001
44
0.0000000001
40
0
40
0
40
0
40
0
40
1
40
1
40
1
40
1
10
27.179060500000016
20
20.840944750000006
30
0
10
27.179060500000016
20
22.195773250000002
30
0
10
27.187760500000007
20
22.898328250000006
30
0
10
27.204562000000028
20
22.898328250000006
30
0
0
SPLINE
5
213
100
AcDbEntity
8
0
100
AcDbSpline
70
0
71
3
72
8
73
4
74
0
42
0.000000001
43
0.0000000001
44
0.0000000001
40
0
40
0
40
0
40
0
40
1
40
1
40
1
40
1
10
27.204562000000028
20
22.898328250000006
30
0
10
27.218587000000039
20
22.898328250000006
30
0
10
27.230063500000004
20
22.920544750000008
30
0
10
27.230063500000004
20
22.947696250000003
30
0
0
SPLINE
5
214
100
AcDbEntity
8
0
100
AcDbSpline
70
0
71
3
72
8
73
4
74
0
42
0.000000001
43
0.0000000001
44
0.0000000001
40
0
40
0
40
0
40
0
40
1
40
1
40
1
40
1
10
27.230063500000004
20
22.947696250000003
30
0
10
27.230063500000004
20
22.981759750000002
30
0
10
27.52594150000002
20
23.242809250000008
30
0
10
28.184464000000009
20
23.789752750000002
30
0
0
LINE
5
215
100
AcDbEntity
8
0
100
AcDbLine
10
28.184464000000013
20
23.789752750000005
30
0
11
29.138863000000033
21
24.582441250000002
31
0
0
LINE
5
216
100
AcDbEntity
8
0
100
AcDbLine
10
29.138863000000033
20
24.582441250000002
30
0
11
29.407187500000003
21
24.816478750000002
31
0
0
SPLINE
5
217
100
AcDbEntity
8
0
100
AcDbSpline
70
0
71
3
72
8
73
4
74
0
42
0.000000001
43
0.0000000001
44
0.0000000001
40
0
40
0
40
0
40
0
40
1
40
1
40
1
40
1
10
29.407187500000003
20
24.816478750000002
30
0
10
29.4110725
20
24.812653750000003
30
0
10
29.740454500000038
20
25.080726250000005
30
0
10
30.139153000000025
20
25.412200750000004
30
0
0
LINE
5
218
100
AcDbEntity
8
0
100
AcDbLine
10
30.139153000000029
20
25.412200750000011
30
0
11
30.864058000000032
21
26.014879750000009
31
0
0
LINE
5
219
100
AcDbEntity
8
0
100
AcDbLine
10
30.864058000000032
20
26.014879750000009
30
0
11
35.533295500000023
21
26.015329750000006
31
0
0
SPLINE
5
220
100
AcDbEntity
8
0
100
AcDbSpline
70
0
71
3
72
8
73
4
74
0
42
0.000000001
43
0.0000000001
44
0.0000000001
40
0
40
0
40
0
40
0
40
0.67953809521396913
40
0.67953809521396913
40
0.67953809521396913
40
0.67953809521396913
10
35.533295500000023
20
26.015329750000006
30
0
10
38.585397703984519
20
26.015635542142853
30
0
10
39.646325554063964
20
26.014971613037723
30
0
10
40.025600925401605
20
26.000615278985414
30
0
0
LWPOLYLINE
5
221
100
AcDbEntity
8
0
100
AcDbPolyline
90
48
70
1
43
0.0
10
42.700000000000003
20
21.600000000000005
10
42.700000000000003
20
28.20000000000001
10
35.700000000000003
20
28.20000000000001
10
35.700000000000003
20
31.20000000000001
10
25.700000000000003
20
31.20000000000001
10
25.700000000000003
20
28.20000000000001
10
15.700000000000003
20
28.20000000000001
10
15.700000000000003
20
31.20000000000001
10
5.7000000000000028
20
31.20000000000001
10
5.7000000000000028
20
28.20000000000001
10
-4.2999999999999972
20
28.20000000000001
10
-4.2999999999999972
20
23.100000000000009
10
-1.700000000000002
20
23.100000000000009
10
-1.6999999999999968
20
8.1000000000000085
10
-4.2999999999999972
20
8.1000000000000085
10
-4.3000000000000043
20
-4.1499999999999932
10
-6.2999999999999954
20
-7.4263955409132034
10
-6.2999999999999989
20
-11.099999999999998
10
-4.2999999999999989
20
-11.099999999999996
10
-4.2999999999999972
20
-10.499999999999989
10
-3.0999999999999925
20
-10.499999999999993
10
-3.0999999999999956
20
-15.499999999999991
10
-4.2999999999999972
20
-15.499999999999993
10
-4.299999999999998
20
-14.899999999999993
10
-6.299999999999998
20
-14.899999999999993
10
-6.2999999999999909
20
-18.573604459086791
10
-4.2999999999999972
20
-21.849999999999994
10
-4.2999999999999972
20
-28.200000000000003
10
5.7000000000000028
20
-28.200000000000003
10
5.7000000000000028
20
-31.200000000000003
10
15.700000000000003
20
-31.200000000000003
10
15.700000000000003
20
-28.200000000000003
10
25.700000000000003
20
-28.200000000000003
10
25.700000000000003
20
-31.200000000000003
10
35.700000000000003
20
-31.200000000000003
10
35.700000000000003
20
-28.200000000000003
10
42.700000000000003
20
-28.200000000000003
10
42.700000000000003
20
-21.599999999999998
10
45.700000000000003
20
-21.599999999999998
10
45.700000000000003
20
-11.599999999999998
10
42.700000000000003
20
-11.599999999999998
10
42.700000000000003
20
-4.9999999999999956
10
45.700000000000003
20
-4.9999999999999956
10
45.700000000000003
20
5.0000000000000044
10
42.700000000000003
20
5.0000000000000044
10
42.700000000000003
20
11.600000000000005
10
45.700000000000003
20
11.600000000000005
10
45.700000000000003
20
21.600000000000005
0
CIRCLE
5
222
100
AcDbEntity
8
0
100
AcDbCircle
10
4.2000000000000037
20
10.600000000000009
30
0
40
1.4999999999999991
210
0
220
-0
230
1
0
CIRCLE
5
223
100
AcDbEntity
8
0
100
AcDbCircle
10
28.900000000000009
20
-22.499999999999993
30
0
40
2.0000000000000018
210
0
220
-0
230
1
0
CIRCLE
5
224
100
AcDbEntity
8
0
100
AcDbCircle
10
28.900000000000009
20
-3.499999999999992
30
0
40
2.0000000000000018
210
0
220
-0
230
1
0
CIRCLE
5
225
100
AcDbEntity
8
0
100
AcDbCircle
10
4.2000000000000037
20
20.600000000000009
30
0
40
1.4999999999999991
210
0
220
-0
230
1
0
ENDSEC
0
SECTION
2
OBJECTS
0
DICTIONARY
5
C
100
AcDbDictionary
3
ACAD_GROUP
350
D
3
ACAD_MLINESTYLE
350
17
0
DICTIONARY
5
D
100
AcDbDictionary
0
DICTIONARY
5
1A
330
C
100
AcDbDictionary
0
DICTIONARY
5
17
100
AcDbDictionary
0
ENDSEC
0
EOF
